<?xml version="1.0" encoding="UTF-8" standalone="no"?>
<svg
   xmlns:dc="http://purl.org/dc/elements/1.1/"
   xmlns:cc="http://creativecommons.org/ns#"
   xmlns:rdf="http://www.w3.org/1999/02/22-rdf-syntax-ns#"
   xmlns:svg="http://www.w3.org/2000/svg"
   xmlns="http://www.w3.org/2000/svg"
   xmlns:xlink="http://www.w3.org/1999/xlink"
   xmlns:sodipodi="http://sodipodi.sourceforge.net/DTD/sodipodi-0.dtd"
   xmlns:inkscape="http://www.inkscape.org/namespaces/inkscape"
   width="186.35207mm"
   height="66.934303mm"
   viewBox="0 0 186.35207 66.934303"
   version="1.1"
   id="svg8"
   inkscape:version="1.0.1 (1.0.1+r73)"
   sodipodi:docname="numberline3.svg">
  <defs
     id="defs2">
    <marker
       style="overflow:visible"
       id="Arrow1Lstart"
       refX="0"
       refY="0"
       orient="auto"
       inkscape:stockid="Arrow1Lstart"
       inkscape:isstock="true">
      <path
         transform="matrix(0.8,0,0,0.8,10,0)"
         style="fill:#0000ff;fill-opacity:1;fill-rule:evenodd;stroke:#0000ff;stroke-width:1pt;stroke-opacity:1"
         d="M 0,0 5,-5 -12.5,0 5,5 Z"
         id="path2576" />
    </marker>
    <g
       id="g6366">
      <symbol
         overflow="visible"
         id="symbol543">
        <path
           style="stroke:none"
           d=""
           id="path1861" />
      </symbol>
      <symbol
         overflow="visible"
         id="symbol9210">
        <path
           style="stroke:none"
           d="m 3.875,8.515625 -1.75,-3.875 C 2.046875,4.484375 2,4.484375 1.96875,4.484375 c 0,0 -0.0625,0 -0.171875,0.078125 l -0.9375,0.71875 c -0.125,0.109375 -0.125,0.125 -0.125,0.15625 0,0.0625 0.015625,0.109375 0.09375,0.109375 0.0625,0 0.234375,-0.140625 0.34375,-0.21875 C 1.21875,5.28125 1.375,5.171875 1.484375,5.09375 l 1.96875,4.3125 C 3.515625,9.5625 3.5625,9.5625 3.65625,9.5625 c 0.15625,0 0.1875,-0.046875 0.25,-0.1875 L 8.4375,0 C 8.5,-0.140625 8.5,-0.171875 8.5,-0.203125 8.5,-0.296875 8.421875,-0.40625 8.296875,-0.40625 c -0.078125,0 -0.140625,0.0625 -0.21875,0.21875 z m 0,0"
           id="path8194" />
      </symbol>
      <symbol
         overflow="visible"
         id="symbol2938">
        <path
           style="stroke:none"
           d=""
           id="path8175" />
      </symbol>
      <symbol
         overflow="visible"
         id="symbol1543">
        <path
           style="stroke:none"
           d="m 0.875,-0.59375 c -0.03125,0.15625 -0.09375,0.390625 -0.09375,0.4375 0,0.171875 0.140625,0.265625 0.296875,0.265625 0.125,0 0.296875,-0.078125 0.375,-0.28125 0,-0.015625 0.125,-0.484375 0.1875,-0.734375 l 0.21875,-0.890625 C 1.90625,-2.03125 1.96875,-2.25 2.03125,-2.46875 c 0.03125,-0.171875 0.109375,-0.46875 0.125,-0.5 0.140625,-0.3125 0.671875,-1.21875 1.625,-1.21875 0.453125,0 0.53125,0.375 0.53125,0.703125 0,0.609375 -0.484375,1.890625 -0.640625,2.3125 C 3.578125,-0.9375 3.5625,-0.8125 3.5625,-0.703125 c 0,0.46875 0.359375,0.8125 0.828125,0.8125 0.9375,0 1.296875,-1.453125 1.296875,-1.53125 0,-0.109375 -0.078125,-0.109375 -0.109375,-0.109375 -0.109375,0 -0.109375,0.03125 -0.15625,0.1875 -0.203125,0.671875 -0.53125,1.234375 -1.015625,1.234375 -0.171875,0 -0.234375,-0.09375 -0.234375,-0.328125 0,-0.25 0.078125,-0.484375 0.171875,-0.703125 0.1875,-0.53125 0.609375,-1.625 0.609375,-2.203125 0,-0.65625 -0.421875,-1.0625 -1.140625,-1.0625 -0.90625,0 -1.390625,0.640625 -1.5625,0.875 -0.046875,-0.5625 -0.453125,-0.875 -0.921875,-0.875 -0.453125,0 -0.640625,0.390625 -0.734375,0.5625 C 0.421875,-3.5 0.296875,-2.90625 0.296875,-2.875 c 0,0.109375 0.09375,0.109375 0.109375,0.109375 0.109375,0 0.109375,-0.015625 0.171875,-0.234375 0.171875,-0.703125 0.375,-1.1875 0.734375,-1.1875 0.1875,0 0.296875,0.125 0.296875,0.453125 0,0.21875 -0.03125,0.328125 -0.15625,0.84375 z m 0,0"
           id="path8619" />
      </symbol>
    </g>
    <g
       id="g8621">
      <symbol
         overflow="visible"
         id="symbol7892">
        <path
           style="stroke:none"
           d=""
           id="path3807" />
      </symbol>
      <symbol
         overflow="visible"
         id="symbol4201">
        <path
           style="stroke:none"
           d="m 0.875,-0.59375 c -0.03125,0.15625 -0.09375,0.390625 -0.09375,0.4375 0,0.171875 0.140625,0.265625 0.296875,0.265625 0.125,0 0.296875,-0.078125 0.375,-0.28125 0,-0.015625 0.125,-0.484375 0.1875,-0.734375 l 0.21875,-0.890625 C 1.90625,-2.03125 1.96875,-2.25 2.03125,-2.46875 c 0.03125,-0.171875 0.109375,-0.46875 0.125,-0.5 0.140625,-0.3125 0.671875,-1.21875 1.625,-1.21875 0.453125,0 0.53125,0.375 0.53125,0.703125 0,0.609375 -0.484375,1.890625 -0.640625,2.3125 C 3.578125,-0.9375 3.5625,-0.8125 3.5625,-0.703125 c 0,0.46875 0.359375,0.8125 0.828125,0.8125 0.9375,0 1.296875,-1.453125 1.296875,-1.53125 0,-0.109375 -0.078125,-0.109375 -0.109375,-0.109375 -0.109375,0 -0.109375,0.03125 -0.15625,0.1875 -0.203125,0.671875 -0.53125,1.234375 -1.015625,1.234375 -0.171875,0 -0.234375,-0.09375 -0.234375,-0.328125 0,-0.25 0.078125,-0.484375 0.171875,-0.703125 0.1875,-0.53125 0.609375,-1.625 0.609375,-2.203125 0,-0.65625 -0.421875,-1.0625 -1.140625,-1.0625 -0.90625,0 -1.390625,0.640625 -1.5625,0.875 -0.046875,-0.5625 -0.453125,-0.875 -0.921875,-0.875 -0.453125,0 -0.640625,0.390625 -0.734375,0.5625 C 0.421875,-3.5 0.296875,-2.90625 0.296875,-2.875 c 0,0.109375 0.09375,0.109375 0.109375,0.109375 0.109375,0 0.109375,-0.015625 0.171875,-0.234375 0.171875,-0.703125 0.375,-1.1875 0.734375,-1.1875 0.1875,0 0.296875,0.125 0.296875,0.453125 0,0.21875 -0.03125,0.328125 -0.15625,0.84375 z m 0,0"
           id="path9024" />
      </symbol>
    </g>
    <g
       id="g3312">
      <symbol
         overflow="visible"
         id="symbol5319">
        <path
           style="stroke:none"
           d=""
           id="path2496" />
      </symbol>
      <symbol
         overflow="visible"
         id="symbol7923">
        <path
           style="stroke:none"
           d="m 4.578125,-3.1875 c 0,-0.796875 -0.046875,-1.59375 -0.390625,-2.328125 -0.453125,-0.96875 -1.28125,-1.125 -1.6875,-1.125 -0.609375,0 -1.328125,0.265625 -1.75,1.1875 -0.3125,0.6875 -0.359375,1.46875 -0.359375,2.265625 0,0.75 0.03125,1.640625 0.453125,2.40625 0.421875,0.796875 1.15625,1 1.640625,1 0.53125,0 1.296875,-0.203125 1.734375,-1.15625 0.3125,-0.6875 0.359375,-1.46875 0.359375,-2.25 z M 2.484375,0 C 2.09375,0 1.5,-0.25 1.328125,-1.203125 1.21875,-1.796875 1.21875,-2.71875 1.21875,-3.3125 c 0,-0.640625 0,-1.296875 0.078125,-1.828125 0.1875,-1.1875 0.9375,-1.28125 1.1875,-1.28125 0.328125,0 0.984375,0.1875 1.171875,1.171875 0.109375,0.5625 0.109375,1.3125 0.109375,1.9375 0,0.75 0,1.421875 -0.109375,2.0625 C 3.5,-0.296875 2.9375,0 2.484375,0 Z m 0,0"
           id="path8662" />
      </symbol>
    </g>
    <filter
       inkscape:collect="always"
       style="color-interpolation-filters:sRGB"
       id="filter2091"
       x="-0.00024003907"
       width="1.0004801"
       y="-0.00024003907"
       height="1.0004801">
      <feGaussianBlur
         inkscape:collect="always"
         stdDeviation="0.00025889261"
         id="feGaussianBlur2093" />
    </filter>
    <filter
       inkscape:collect="always"
       style="color-interpolation-filters:sRGB"
       id="filter2095"
       x="-0.00024003907"
       width="1.0004801"
       y="-0.00024003907"
       height="1.0004801">
      <feGaussianBlur
         inkscape:collect="always"
         stdDeviation="0.00025889261"
         id="feGaussianBlur2097" />
    </filter>
    <filter
       inkscape:collect="always"
       style="color-interpolation-filters:sRGB"
       id="filter2095-6"
       x="-0.00024003907"
       width="1.0004801"
       y="-0.00024003907"
       height="1.0004801">
      <feGaussianBlur
         inkscape:collect="always"
         stdDeviation="0.00025889261"
         id="feGaussianBlur2097-7" />
    </filter>
    <g
       id="g2170">
      <symbol
         overflow="visible"
         id="symbol35">
        <path
           style="stroke:none"
           d=""
           id="path1236" />
      </symbol>
      <symbol
         overflow="visible"
         id="symbol6799">
        <path
           style="stroke:none"
           d="M 4.6875,-3.765625 C 4.703125,-3.8125 4.71875,-3.875 4.71875,-3.9375 c 0,-0.171875 -0.109375,-0.265625 -0.28125,-0.265625 -0.09375,0 -0.375,0.0625 -0.40625,0.421875 -0.1875,-0.359375 -0.53125,-0.625 -0.9375,-0.625 -1.125,0 -2.359375,1.390625 -2.359375,2.828125 0,0.984375 0.59375,1.578125 1.3125,1.578125 0.59375,0 1.0625,-0.46875 1.15625,-0.578125 L 3.21875,-0.5625 C 3.015625,0.3125 2.890625,0.734375 2.890625,0.75 2.84375,0.84375 2.515625,1.828125 1.453125,1.828125 1.265625,1.828125 0.9375,1.8125 0.65625,1.71875 0.953125,1.640625 1.0625,1.375 1.0625,1.203125 c 0,-0.15625 -0.109375,-0.34375 -0.375,-0.34375 -0.21875,0 -0.53125,0.171875 -0.53125,0.578125 0,0.40625 0.359375,0.609375 1.3125,0.609375 1.25,0 1.96875,-0.78125 2.125,-1.375 z M 3.40625,-1.28125 C 3.34375,-1.015625 3.109375,-0.765625 2.890625,-0.578125 2.6875,-0.40625 2.375,-0.21875 2.078125,-0.21875 c -0.5,0 -0.640625,-0.515625 -0.640625,-0.921875 0,-0.46875 0.28125,-1.65625 0.5625,-2.15625 C 2.265625,-3.78125 2.6875,-4.1875 3.109375,-4.1875 c 0.65625,0 0.796875,0.8125 0.796875,0.859375 0,0.046875 -0.015625,0.109375 -0.03125,0.140625 z m 0,0"
           id="path9663" />
      </symbol>
    </g>
    <g
       id="g9555">
      <symbol
         overflow="visible"
         id="symbol6170">
        <path
           style="stroke:none"
           d=""
           id="path3395" />
      </symbol>
      <symbol
         overflow="visible"
         id="symbol6223">
        <path
           style="stroke:none"
           d="m 0.84375,-0.4375 c -0.015625,0.09375 -0.0625,0.265625 -0.0625,0.28125 0,0.15625 0.125,0.21875 0.234375,0.21875 0.125,0 0.234375,-0.078125 0.28125,-0.140625 0.03125,-0.0625 0.078125,-0.296875 0.125,-0.4375 0.03125,-0.125 0.109375,-0.453125 0.140625,-0.625 0.046875,-0.15625 0.09375,-0.3125 0.125,-0.46875 0.078125,-0.28125 0.09375,-0.34375 0.296875,-0.625 C 2.171875,-2.515625 2.5,-2.875 3.03125,-2.875 c 0.390625,0 0.40625,0.359375 0.40625,0.484375 0,0.421875 -0.296875,1.1875 -0.40625,1.484375 -0.078125,0.203125 -0.109375,0.265625 -0.109375,0.375 0,0.375 0.296875,0.59375 0.65625,0.59375 0.703125,0 1,-0.953125 1,-1.0625 0,-0.09375 -0.078125,-0.09375 -0.109375,-0.09375 -0.09375,0 -0.09375,0.046875 -0.125,0.125 C 4.1875,-0.40625 3.875,-0.125 3.609375,-0.125 c -0.15625,0 -0.1875,-0.09375 -0.1875,-0.25 0,-0.15625 0.046875,-0.25 0.171875,-0.5625 0.078125,-0.21875 0.359375,-0.953125 0.359375,-1.34375 0,-0.671875 -0.53125,-0.796875 -0.90625,-0.796875 -0.578125,0 -0.96875,0.359375 -1.171875,0.640625 -0.046875,-0.484375 -0.453125,-0.640625 -0.75,-0.640625 -0.296875,0 -0.453125,0.21875 -0.546875,0.375 -0.15625,0.265625 -0.25,0.65625 -0.25,0.703125 0,0.078125 0.09375,0.078125 0.125,0.078125 0.09375,0 0.09375,-0.015625 0.140625,-0.203125 0.109375,-0.40625 0.25,-0.75 0.515625,-0.75 0.1875,0 0.234375,0.15625 0.234375,0.34375 0,0.125 -0.0625,0.390625 -0.125,0.578125 -0.046875,0.1875 -0.109375,0.46875 -0.140625,0.625 z m 0,0"
           id="path661" />
      </symbol>
      <symbol
         overflow="visible"
         id="symbol8645">
        <path
           style="stroke:none"
           d="m 3.703125,-2.578125 c 0.03125,-0.09375 0.03125,-0.125 0.03125,-0.140625 0,-0.15625 -0.125,-0.21875 -0.234375,-0.21875 -0.15625,0 -0.296875,0.125 -0.328125,0.265625 -0.109375,-0.1875 -0.34375,-0.40625 -0.71875,-0.40625 -0.859375,0 -1.78125,0.9375 -1.78125,1.9375 0,0.71875 0.484375,1.140625 1.0625,1.140625 0.328125,0 0.625,-0.15625 0.875,-0.375 L 2.453125,0.25 C 2.375,0.546875 2.328125,0.734375 2.0625,0.96875 c -0.3125,0.25 -0.609375,0.25 -0.78125,0.25 -0.3125,0 -0.40625,-0.015625 -0.53125,-0.046875 0.171875,-0.078125 0.21875,-0.25 0.21875,-0.34375 0,-0.171875 -0.125,-0.25 -0.265625,-0.25 C 0.5,0.578125 0.296875,0.734375 0.296875,1 c 0,0.421875 0.609375,0.421875 1,0.421875 1.09375,0 1.546875,-0.5625 1.65625,-0.953125 z M 2.75,-0.921875 c -0.03125,0.09375 -0.03125,0.109375 -0.15625,0.25 C 2.359375,-0.375 2.015625,-0.1875 1.75,-0.1875 c -0.34375,0 -0.515625,-0.3125 -0.515625,-0.671875 0,-0.296875 0.1875,-1.078125 0.375,-1.390625 0.28125,-0.484375 0.609375,-0.625 0.84375,-0.625 0.5,0 0.625,0.515625 0.625,0.59375 0,0.015625 0,0.015625 -0.015625,0.09375 z m 0,0"
           id="path5770" />
      </symbol>
    </g>
    <filter
       inkscape:collect="always"
       style="color-interpolation-filters:sRGB"
       id="filter2095-3"
       x="-0.81197393"
       width="2.1851602"
       y="-0.96699047"
       height="2.4365568">
      <feGaussianBlur
         inkscape:collect="always"
         stdDeviation="0.00025889261"
         id="feGaussianBlur2097-5" />
    </filter>
    <g
       id="g6124">
      <symbol
         overflow="visible"
         id="symbol4099">
        <path
           style="stroke:none"
           d=""
           id="path9584" />
      </symbol>
      <symbol
         overflow="visible"
         id="symbol2817">
        <path
           style="stroke:none"
           d="m 2.328125,-4.4375 c 0,-0.1875 0,-0.1875 -0.203125,-0.1875 -0.453125,0.4375 -1.078125,0.4375 -1.359375,0.4375 v 0.25 c 0.15625,0 0.625,0 1,-0.1875 v 3.546875 c 0,0.234375 0,0.328125 -0.6875,0.328125 H 0.8125 V 0 c 0.125,0 0.984375,-0.03125 1.234375,-0.03125 0.21875,0 1.09375,0.03125 1.25,0.03125 V -0.25 H 3.03125 c -0.703125,0 -0.703125,-0.09375 -0.703125,-0.328125 z m 0,0"
           id="path1516" />
      </symbol>
      <symbol
         overflow="visible"
         id="symbol6638">
        <path
           style="stroke:none"
           d="M 3.515625,-1.265625 H 3.28125 c -0.015625,0.15625 -0.09375,0.5625 -0.1875,0.625 C 3.046875,-0.59375 2.515625,-0.59375 2.40625,-0.59375 H 1.125 c 0.734375,-0.640625 0.984375,-0.84375 1.390625,-1.171875 0.515625,-0.40625 1,-0.84375 1,-1.5 0,-0.84375 -0.734375,-1.359375 -1.625,-1.359375 -0.859375,0 -1.453125,0.609375 -1.453125,1.25 0,0.34375 0.296875,0.390625 0.375,0.390625 0.15625,0 0.359375,-0.125 0.359375,-0.375 0,-0.125 -0.046875,-0.375 -0.40625,-0.375 C 0.984375,-4.21875 1.453125,-4.375 1.78125,-4.375 c 0.703125,0 1.0625,0.546875 1.0625,1.109375 0,0.609375 -0.4375,1.078125 -0.65625,1.328125 L 0.515625,-0.265625 C 0.4375,-0.203125 0.4375,-0.1875 0.4375,0 h 2.875 z m 0,0"
           id="path3765" />
      </symbol>
      <symbol
         overflow="visible"
         id="symbol2633">
        <path
           style="stroke:none"
           d=""
           id="path8033" />
      </symbol>
      <symbol
         overflow="visible"
         id="symbol3709">
        <path
           style="stroke:none"
           d="M 5.140625,17.421875 C 5.15625,17.4375 5.25,17.53125 5.25,17.53125 h 0.21875 c 0.03125,0 0.109375,0 0.109375,-0.09375 0,-0.04687 -0.015625,-0.0625 -0.03125,-0.09375 -0.359375,-0.359375 -0.90625,-0.90625 -1.515625,-2 -1.078125,-1.921875 -1.484375,-4.375 -1.484375,-6.765625 0,-4.4375 1.265625,-7.03125 3,-8.796875 0.03125,-0.03125 0.03125,-0.0625 0.03125,-0.078125 0,-0.109375 -0.0625,-0.109375 -0.1875,-0.109375 -0.125,0 -0.140625,0 -0.234375,0.09375 C 4.203125,0.5 3.140625,1.890625 2.453125,3.984375 2.03125,5.296875 1.796875,6.90625 1.796875,8.5625 c 0,2.359375 0.421875,5.03125 1.984375,7.34375 0.28125,0.390625 0.640625,0.796875 0.640625,0.8125 C 4.53125,16.84375 4.671875,17 4.75,17.0625 Z m 0,0"
           id="path1025" />
      </symbol>
      <symbol
         overflow="visible"
         id="symbol526">
        <path
           style="stroke:none"
           d="m 4.140625,8.5625 c 0,-2.859375 -0.65625,-5.90625 -2.625,-8.140625 C 1.375,0.265625 1,-0.125 0.765625,-0.34375 c -0.0625,-0.0625 -0.09375,-0.0625 -0.21875,-0.0625 -0.09375,0 -0.1875,0 -0.1875,0.109375 0,0.03125 0.046875,0.078125 0.0625,0.09375 0.328125,0.359375 0.875,0.90625 1.484375,2 1.078125,1.90625 1.484375,4.375 1.484375,6.765625 0,4.328125 -1.203125,6.96875 -2.984375,8.796875 C 0.375,17.375 0.359375,17.40625 0.359375,17.4375 c 0,0.09375 0.09375,0.09375 0.1875,0.09375 0.125,0 0.15625,0 0.234375,-0.07813 0.953125,-0.8125 2.015625,-2.203125 2.703125,-4.296875 0.4375,-1.375 0.65625,-2.984375 0.65625,-4.59375 z m 0,0"
           id="path6851" />
      </symbol>
      <symbol
         overflow="visible"
         id="symbol4293">
        <path
           style="stroke:none"
           d=""
           id="path5479" />
      </symbol>
      <symbol
         overflow="visible"
         id="symbol925">
        <path
           style="stroke:none"
           d="M 4.6875,-3.765625 C 4.703125,-3.8125 4.71875,-3.875 4.71875,-3.9375 c 0,-0.171875 -0.109375,-0.265625 -0.28125,-0.265625 -0.09375,0 -0.375,0.0625 -0.40625,0.421875 -0.1875,-0.359375 -0.53125,-0.625 -0.9375,-0.625 -1.125,0 -2.359375,1.390625 -2.359375,2.828125 0,0.984375 0.59375,1.578125 1.3125,1.578125 0.59375,0 1.0625,-0.46875 1.15625,-0.578125 L 3.21875,-0.5625 C 3.015625,0.3125 2.890625,0.734375 2.890625,0.75 2.84375,0.84375 2.515625,1.828125 1.453125,1.828125 1.265625,1.828125 0.9375,1.8125 0.65625,1.71875 0.953125,1.640625 1.0625,1.375 1.0625,1.203125 c 0,-0.15625 -0.109375,-0.34375 -0.375,-0.34375 -0.21875,0 -0.53125,0.171875 -0.53125,0.578125 0,0.40625 0.359375,0.609375 1.3125,0.609375 1.25,0 1.96875,-0.78125 2.125,-1.375 z M 3.40625,-1.28125 C 3.34375,-1.015625 3.109375,-0.765625 2.890625,-0.578125 2.6875,-0.40625 2.375,-0.21875 2.078125,-0.21875 c -0.5,0 -0.640625,-0.515625 -0.640625,-0.921875 0,-0.46875 0.28125,-1.65625 0.5625,-2.15625 C 2.265625,-3.78125 2.6875,-4.1875 3.109375,-4.1875 c 0.65625,0 0.796875,0.8125 0.796875,0.859375 0,0.046875 -0.015625,0.109375 -0.03125,0.140625 z m 0,0"
           id="path5646" />
      </symbol>
      <symbol
         overflow="visible"
         id="symbol9691">
        <path
           style="stroke:none"
           d=""
           id="path5978" />
      </symbol>
      <symbol
         overflow="visible"
         id="symbol2085">
        <path
           style="stroke:none"
           d="m 4.078125,-2.296875 h 2.78125 C 7,-2.296875 7.1875,-2.296875 7.1875,-2.5 7.1875,-2.6875 7,-2.6875 6.859375,-2.6875 h -2.78125 v -2.796875 c 0,-0.140625 0,-0.328125 -0.203125,-0.328125 -0.203125,0 -0.203125,0.1875 -0.203125,0.328125 V -2.6875 h -2.78125 c -0.140625,0 -0.328125,0 -0.328125,0.1875 0,0.203125 0.1875,0.203125 0.328125,0.203125 h 2.78125 V 0.5 c 0,0.140625 0,0.328125 0.203125,0.328125 0.203125,0 0.203125,-0.1875 0.203125,-0.328125 z m 0,0"
           id="path7783" />
      </symbol>
      <symbol
         overflow="visible"
         id="symbol5012">
        <path
           style="stroke:none"
           d=""
           id="path1039" />
      </symbol>
      <symbol
         overflow="visible"
         id="symbol2279">
        <path
           style="stroke:none"
           d="m 0.84375,-0.4375 c -0.015625,0.09375 -0.0625,0.265625 -0.0625,0.28125 0,0.15625 0.125,0.21875 0.234375,0.21875 0.125,0 0.234375,-0.078125 0.28125,-0.140625 0.03125,-0.0625 0.078125,-0.296875 0.125,-0.4375 0.03125,-0.125 0.109375,-0.453125 0.140625,-0.625 0.046875,-0.15625 0.09375,-0.3125 0.125,-0.46875 0.078125,-0.28125 0.09375,-0.34375 0.296875,-0.625 C 2.171875,-2.515625 2.5,-2.875 3.03125,-2.875 c 0.390625,0 0.40625,0.359375 0.40625,0.484375 0,0.421875 -0.296875,1.1875 -0.40625,1.484375 -0.078125,0.203125 -0.109375,0.265625 -0.109375,0.375 0,0.375 0.296875,0.59375 0.65625,0.59375 0.703125,0 1,-0.953125 1,-1.0625 0,-0.09375 -0.078125,-0.09375 -0.109375,-0.09375 -0.09375,0 -0.09375,0.046875 -0.125,0.125 C 4.1875,-0.40625 3.875,-0.125 3.609375,-0.125 c -0.15625,0 -0.1875,-0.09375 -0.1875,-0.25 0,-0.15625 0.046875,-0.25 0.171875,-0.5625 0.078125,-0.21875 0.359375,-0.953125 0.359375,-1.34375 0,-0.671875 -0.53125,-0.796875 -0.90625,-0.796875 -0.578125,0 -0.96875,0.359375 -1.171875,0.640625 -0.046875,-0.484375 -0.453125,-0.640625 -0.75,-0.640625 -0.296875,0 -0.453125,0.21875 -0.546875,0.375 -0.15625,0.265625 -0.25,0.65625 -0.25,0.703125 0,0.078125 0.09375,0.078125 0.125,0.078125 0.09375,0 0.09375,-0.015625 0.140625,-0.203125 0.109375,-0.40625 0.25,-0.75 0.515625,-0.75 0.1875,0 0.234375,0.15625 0.234375,0.34375 0,0.125 -0.0625,0.390625 -0.125,0.578125 -0.046875,0.1875 -0.109375,0.46875 -0.140625,0.625 z m 0,0"
           id="path485" />
      </symbol>
      <symbol
         overflow="visible"
         id="symbol5964">
        <path
           style="stroke:none"
           d="m 3.703125,-2.578125 c 0.03125,-0.09375 0.03125,-0.125 0.03125,-0.140625 0,-0.15625 -0.125,-0.21875 -0.234375,-0.21875 -0.15625,0 -0.296875,0.125 -0.328125,0.265625 -0.109375,-0.1875 -0.34375,-0.40625 -0.71875,-0.40625 -0.859375,0 -1.78125,0.9375 -1.78125,1.9375 0,0.71875 0.484375,1.140625 1.0625,1.140625 0.328125,0 0.625,-0.15625 0.875,-0.375 L 2.453125,0.25 C 2.375,0.546875 2.328125,0.734375 2.0625,0.96875 c -0.3125,0.25 -0.609375,0.25 -0.78125,0.25 -0.3125,0 -0.40625,-0.015625 -0.53125,-0.046875 0.171875,-0.078125 0.21875,-0.25 0.21875,-0.34375 0,-0.171875 -0.125,-0.25 -0.265625,-0.25 C 0.5,0.578125 0.296875,0.734375 0.296875,1 c 0,0.421875 0.609375,0.421875 1,0.421875 1.09375,0 1.546875,-0.5625 1.65625,-0.953125 z M 2.75,-0.921875 c -0.03125,0.09375 -0.03125,0.109375 -0.15625,0.25 C 2.359375,-0.375 2.015625,-0.1875 1.75,-0.1875 c -0.34375,0 -0.515625,-0.3125 -0.515625,-0.671875 0,-0.296875 0.1875,-1.078125 0.375,-1.390625 0.28125,-0.484375 0.609375,-0.625 0.84375,-0.625 0.5,0 0.625,0.515625 0.625,0.59375 0,0.015625 0,0.015625 -0.015625,0.09375 z m 0,0"
           id="path294" />
      </symbol>
    </g>
  </defs>
  <sodipodi:namedview
     id="base"
     pagecolor="#ffffff"
     bordercolor="#666666"
     borderopacity="1.0"
     inkscape:pageopacity="1"
     inkscape:pageshadow="2"
     inkscape:zoom="1.4"
     inkscape:cx="314.52754"
     inkscape:cy="75.099935"
     inkscape:document-units="px"
     inkscape:current-layer="layer1"
     inkscape:document-rotation="0"
     showgrid="false"
     inkscape:snap-object-midpoints="false"
     inkscape:window-width="1920"
     inkscape:window-height="987"
     inkscape:window-x="0"
     inkscape:window-y="0"
     inkscape:window-maximized="1"
     fit-margin-top="0"
     fit-margin-left="0"
     fit-margin-right="0"
     fit-margin-bottom="0" />
  <metadata
     id="metadata5">
    <rdf:RDF>
      <cc:Work
         rdf:about="">
        <dc:format>image/svg+xml</dc:format>
        <dc:type
           rdf:resource="http://purl.org/dc/dcmitype/StillImage" />
        <dc:title></dc:title>
      </cc:Work>
    </rdf:RDF>
  </metadata>
  <g
     inkscape:label="Layer 1"
     inkscape:groupmode="layer"
     id="layer1"
     transform="translate(-8.5048248,-156.13713)">
    <path
       style="fill:none;fill-rule:evenodd;stroke:#000000;stroke-width:0.264583px;stroke-linecap:butt;stroke-linejoin:miter;stroke-opacity:1"
       d="M 12.696958,175.09659 H 189.58748"
       id="path837"
       sodipodi:nodetypes="cc" />
    <circle
       style="opacity:0.997;vector-effect:none;fill:#333333;fill-opacity:1;fill-rule:nonzero;stroke:none;stroke-width:0.529167;stroke-linecap:butt;stroke-linejoin:miter;stroke-miterlimit:4;stroke-dasharray:0.529167, 1.05833;stroke-dashoffset:0;stroke-opacity:1"
       id="path937"
       cx="12.696958"
       cy="175.09659"
       r="1.2942524" />
    <circle
       style="opacity:0.997;vector-effect:none;fill:#333333;fill-opacity:1;fill-rule:nonzero;stroke:none;stroke-width:0.529167;stroke-linecap:butt;stroke-linejoin:miter;stroke-miterlimit:4;stroke-dasharray:0.529167, 1.05833;stroke-dashoffset:0;stroke-opacity:1"
       id="path937-3"
       cx="189.58748"
       cy="175.09659"
       r="1.2942524" />
    <circle
       style="opacity:1;vector-effect:none;fill:#333333;fill-opacity:1;fill-rule:nonzero;stroke:none;stroke-width:0.529167;stroke-linecap:butt;stroke-linejoin:miter;stroke-miterlimit:4;stroke-dasharray:0.529167, 1.05833;stroke-dashoffset:0;stroke-opacity:1;filter:url(#filter2091)"
       id="path937-5"
       cx="73.526665"
       cy="175.09659"
       r="1.2942524" />
    <g
       inkscape:label=""
       transform="matrix(1.5792569,0,0,1.5792569,-83.18265,38.67081)"
       id="g1840"
       style="stroke-width:0.633209">
      <g
         id="g4107"
         style="stroke-width:0.633209">
        <g
           style="fill:#000000;fill-opacity:1;stroke-width:0.633209"
           id="g3993">
          <use
             xlink:href="#symbol9210"
             x="91.925003"
             y="74.787003"
             id="use8994"
             width="100%"
             height="100%"
             style="stroke-width:0.633209" />
        </g>
        <path
           style="fill:none;stroke:#000000;stroke-width:0.252017;stroke-linecap:butt;stroke-linejoin:miter;stroke-miterlimit:10;stroke-opacity:1"
           d="M -4.375e-4,-0.00184375 H 5.980031"
           transform="matrix(1,0,0,-1,100.227,74.588)"
           id="path1981" />
        <g
           style="fill:#000000;fill-opacity:1;stroke-width:0.633209"
           id="g9532">
          <use
             xlink:href="#symbol1543"
             x="100.227"
             y="81.962997"
             id="use207"
             width="100%"
             height="100%"
             style="stroke-width:0.633209" />
        </g>
      </g>
    </g>
    <g
       inkscape:label=""
       transform="matrix(1.6078915,0,0,1.6078915,37.906583,39.916874)"
       id="g1946"
       style="stroke-width:0.621933">
      <g
         id="g1220"
         style="stroke-width:0.621933">
        <g
           style="fill:#000000;fill-opacity:1;stroke-width:0.621933"
           id="g5630">
          <use
             xlink:href="#symbol4201"
             x="91.925003"
             y="81.962997"
             id="use4364"
             width="100%"
             height="100%"
             style="stroke-width:0.621933" />
        </g>
      </g>
    </g>
    <g
       inkscape:label=""
       transform="matrix(1.5036382,0,0,1.5036382,-130.30448,48.308729)"
       id="g2007"
       style="stroke-width:0.665054">
      <g
         id="g3489"
         style="stroke-width:0.665054">
        <g
           style="fill:#000000;fill-opacity:1;stroke-width:0.665054"
           id="g772">
          <use
             xlink:href="#symbol7923"
             x="91.925003"
             y="81.962997"
             id="use6165"
             width="100%"
             height="100%"
             style="stroke-width:0.665054" />
        </g>
      </g>
    </g>
    <circle
       style="opacity:1;vector-effect:none;fill:#008000;fill-opacity:1;fill-rule:nonzero;stroke:none;stroke-width:0.529167;stroke-linecap:butt;stroke-linejoin:miter;stroke-miterlimit:4;stroke-dasharray:0.529167, 1.05833;stroke-dashoffset:0;stroke-opacity:1;filter:url(#filter2095)"
       id="path937-5-3"
       cx="114.70876"
       cy="175.09659"
       r="1.2942524" />
    <circle
       style="opacity:1;vector-effect:none;fill:#008000;fill-opacity:1;fill-rule:nonzero;stroke:none;stroke-width:0.529167;stroke-linecap:butt;stroke-linejoin:miter;stroke-miterlimit:4;stroke-dasharray:0.529167, 1.05833;stroke-dashoffset:0;stroke-opacity:1;filter:url(#filter2095-6)"
       id="path937-5-3-5"
       cx="46.507607"
       cy="175.09659"
       r="1.2942524" />
    <g
       inkscape:label=""
       transform="matrix(1.711047,0,0,1.711047,-114.95107,54.35964)"
       id="g2177"
       style="fill:#008000;stroke-width:0.584437">
      <g
         id="g3697"
         style="fill:#008000;stroke-width:0.584437">
        <g
           style="fill:#008000;fill-opacity:1;stroke-width:0.584437"
           id="g825">
          <use
             xlink:href="#symbol6799"
             x="91.925003"
             y="81.962997"
             id="use9009"
             width="100%"
             height="100%"
             style="fill:#008000;stroke-width:0.584437" />
        </g>
      </g>
    </g>
    <g
       style="fill:#008000;fill-opacity:1;stroke-width:0.557276"
       id="g4225"
       transform="matrix(1.7944439,0,0,1.7944439,-56.811335,52.547999)">
      <use
         xlink:href="#symbol6223"
         x="93.121002"
         y="78.040001"
         id="use111"
         width="100%"
         height="100%"
         style="fill:#008000;stroke-width:0.557276" />
    </g>
    <path
       style="fill:#008000;stroke:#008000;stroke-width:0.398;stroke-linecap:butt;stroke-linejoin:miter;stroke-miterlimit:10;stroke-opacity:1"
       d="m 110.28925,195.15723 h 8.83904"
       id="path620" />
    <g
       style="fill:#008000;fill-opacity:1;stroke-width:0.557276"
       id="g3843"
       transform="matrix(1.7944439,0,0,1.7944439,-56.811335,49.902164)">
      <use
         xlink:href="#symbol8645"
         x="93.514999"
         y="85.398003"
         id="use3267"
         width="100%"
         height="100%"
         style="fill:#008000;stroke-width:0.557276" />
    </g>
    <circle
       style="opacity:1;vector-effect:none;fill:#0000ff;fill-opacity:1;fill-rule:nonzero;stroke:#000080;stroke-width:0.529;stroke-linecap:butt;stroke-linejoin:round;stroke-miterlimit:0;stroke-dasharray:none;stroke-dashoffset:0;stroke-opacity:1;paint-order:normal;filter:url(#filter2095-3)"
       id="path937-5-3-6"
       cx="80.608376"
       cy="175.09659"
       r="1.2942524" />
    <text
       xml:space="preserve"
       style="font-size:27.1957px;line-height:125%;font-family:'STIX Math';-inkscape-font-specification:'STIX Math';text-align:center;text-decoration:none;text-decoration-line:none;text-decoration-color:#000000;text-anchor:middle;opacity:1;fill:#008000;stroke-width:0.529167;stroke-dasharray:0.529167, 1.05833"
       x="-263.06436"
       y="50.204956"
       id="text2313"
       transform="matrix(0,-0.68911206,1.4511428,0,0,0)"><tspan
         id="tspan2311"
         x="-263.06436"
         y="50.204956"
         style="font-size:27.1957px;fill:#008000;stroke-width:0.529167"
         sodipodi:role="line">{</tspan></text>
    <text
       xml:space="preserve"
       style="font-size:27.1957px;line-height:125%;font-family:'STIX Math';-inkscape-font-specification:'STIX Math';text-align:center;text-decoration:none;text-decoration-line:none;text-decoration-color:#000000;text-anchor:middle;opacity:1;fill:#008000;stroke-width:0.529167;stroke-dasharray:0.529167, 1.05833"
       x="-263.12869"
       y="74.192307"
       id="text2313-2"
       transform="matrix(0,-0.68911206,1.4511428,0,0,0)"><tspan
         id="tspan2311-9"
         x="-263.12869"
         y="74.192307"
         style="font-size:27.1957px;fill:#008000;stroke-width:0.529167"
         sodipodi:role="line">{</tspan></text>
    <g
       id="g2574"
       transform="translate(2.1166667,0.52916672)">
      <use
         xlink:href="#symbol2817"
         x="93.121002"
         y="79.535004"
         id="use7968"
         width="100%"
         height="100%"
         style="fill:#0000ff;fill-opacity:1"
         transform="translate(-36.547135,132.61301)" />
      <path
         style="fill:#0000ff;stroke:#0000ff;stroke-width:0.398;stroke-linecap:butt;stroke-linejoin:miter;stroke-miterlimit:10;stroke-opacity:1"
         d="m 56.573959,213.57785 h 3.972656"
         id="path7197" />
      <use
         xlink:href="#symbol6638"
         x="93.121002"
         y="86.892998"
         id="use692"
         width="100%"
         height="100%"
         style="fill:#0000ff;fill-opacity:1"
         transform="translate(-36.547135,132.61301)" />
    </g>
    <use
       xlink:href="#symbol3709"
       x="99.947998"
       y="72.398003"
       id="use2358"
       width="100%"
       height="100%"
       style="fill:#0000ff;fill-opacity:1"
       transform="translate(-36.547135,133.14218)" />
    <use
       xlink:href="#symbol925"
       x="105.898"
       y="83.457001"
       id="use9500"
       width="100%"
       height="100%"
       style="fill:#0000ff;fill-opacity:1"
       transform="translate(-36.547135,133.14218)" />
    <use
       xlink:href="#symbol2085"
       x="113.221"
       y="83.457001"
       id="use6349"
       width="100%"
       height="100%"
       style="fill:#0000ff;fill-opacity:1"
       transform="translate(-36.547135,133.14218)" />
    <use
       xlink:href="#symbol2279"
       x="124.379"
       y="79.533997"
       id="use8240"
       width="100%"
       height="100%"
       style="fill:#0000ff;fill-opacity:1"
       transform="translate(-36.547135,133.14218)" />
    <path
       style="fill:#0000ff;stroke:#0000ff;stroke-width:0.398;stroke-linecap:butt;stroke-linejoin:miter;stroke-miterlimit:10;stroke-opacity:1"
       d="m 87.831771,214.10702 h 4.925782"
       id="path1934" />
    <use
       xlink:href="#symbol5964"
       x="124.773"
       y="86.892998"
       id="use7188"
       width="100%"
       height="100%"
       style="fill:#0000ff;fill-opacity:1"
       transform="translate(-36.547135,132.08384)" />
    <use
       xlink:href="#symbol526"
       x="130.5"
       y="72.398003"
       id="use9445"
       width="100%"
       height="100%"
       style="fill:#0000ff;fill-opacity:1"
       transform="translate(-36.547135,133.14218)" />
    <path
       style="fill:none;fill-rule:evenodd;stroke:#0000ff;stroke-width:0.265;stroke-linecap:butt;stroke-linejoin:miter;stroke-miterlimit:4;stroke-dasharray:none;stroke-opacity:1;marker-start:url(#Arrow1Lstart)"
       d="m 80.497621,183.96433 -0.09053,23.26002"
       id="path2513"
       sodipodi:nodetypes="cc" />
  </g>
</svg>
